PathFileType	4	(x/y/z)	S05_PSF_T05
DataRate	CameraRate	NumFrames	NumMarkers	Units	OrigDataRate	OrigDataStartFrame	OrigNumFrames
240	240	5	50	mm	240	223	445
Frame#	Time	Sternum			R.Acromium			L.Acromium			Top.Head			R.ASIS			L.ASIS			R.PSIS			L.PSIS			R.Great.Tro			L.Great.Tro			R.Iliac.Crest			L.Iliac.Crest			V.Sacral			R.Thigh.Upper.Post			R.Thigh.Lower.Ant			R.Thigh.Lower.Post			R.Thigh.Upper.Ant			R.Knee.Lat			R.Knee.Med			R.Shank.Upper.Post			R.Shank.Lower.Ant			R.Shank.Lower.Post			R.Shank.Upper.Ant			R.Ankle.Lat			R.Ankle.Med			R.Heel.Upper			R.Heel.Med			R.Heel.Lat			R.Toe.Lat			R.Toe.Med			R.Toe.Tip			L.Thigh.Upper.Post			L.Thigh.Lower.Ant			L.Thigh.Lower.Post			L.Thigh.Upper.Ant			L.Knee.Lat			L.Shank.Upper.Post			L.Shank.Lower.Ant			L.Shank.Lower.Post			L.Shank.Upper.Ant			L.Ankle.Lat			L.Ankle.Med			L.Heel.Upper			L.Heel.Med			L.Heel.Lat			L.Toe.Lat			L.Toe.Med			L.Toe.Tip			Cervical.Spine			Back			
		X1	Y1	Z1	X2	Y2	Z2	X3	Y3	Z3	X4	Y4	Z4	X5	Y5	Z5	X6	Y6	Z6	X7	Y7	Z7	X8	Y8	Z8	X9	Y9	Z9	X10	Y10	Z10	X11	Y11	Z11	X12	Y12	Z12	X13	Y13	Z13	X14	Y14	Z14	X15	Y15	Z15	X16	Y16	Z16	X17	Y17	Z17	X18	Y18	Z18	X19	Y19	Z19	X20	Y20	Z20	X21	Y21	Z21	X22	Y22	Z22	X23	Y23	Z23	X24	Y24	Z24	X25	Y25	Z25	X26	Y26	Z26	X27	Y27	Z27	X28	Y28	Z28	X29	Y29	Z29	X30	Y30	Z30	X31	Y31	Z31	X32	Y32	Z32	X33	Y33	Z33	X34	Y34	Z34	X35	Y35	Z35	X36	Y36	Z36	X37	Y37	Z37	X38	Y38	Z38	X39	Y39	Z39	X40	Y40	Z40	X41	Y41	Z41	X42	Y42	Z42	X43	Y43	Z43	X44	Y44	Z44	X45	Y45	Z45	X46	Y46	Z46	X47	Y47	Z47	X48	Y48	Z48	X49	Y49	Z49	X50	Y50	Z50	

223	0.925	-335.67	1272.5	322.53	-426.39	1524	488.99	-447.87	1552.9	165.67	-427.13	1840.9	323.56	-403.14	1021.4	453.38	-387.6	1028.3	203.07	-599.42	1032.7	353.08	-591.83	1029.9	261.76	-487.5	936.25	505.77	-456.72	941.69	119.2	-494.9	1102.1	485.64	-480.82	1102.1	150.05	-607.89	996.33	319.98	-436.31	714.77	493.21	-382.92	644.27	443.86	-450.26	628.62	467.55	-372.98	729.71	468.33	-459.64	530.62	445.58	-452.12	519.78	313.55	-552.64	295.19	428.51	-494.99	226.44	425.99	-556.81	220.56	409.33	-488.46	302.68	443.69	-515.39	123.83	407.66	-508.69	148.59	320.89	-589.26	77.086	345.01	-580.26	43.887	317.96	-582.33	49.892	383.16	-420.06	36.945	443.18	-379.66	38.719	323.55	-317.93	53.791	371.21	-356.79	724.62	111.87	-254.87	688.67	136.23	-309.45	642.07	123.69	-294.24	770.47	125.64	-279.95	561.6	132.15	-412.56	407.68	144.17	-374.15	328.25	139.44	-441.09	341.99	160.91	-349.83	393.82	127.53	-471.26	204.44	167.72	-422.78	202.75	247.73	-537.99	180.63	230.11	-531.36	152.94	261.23	-550.03	155.86	202.43	-395.29	83.023	122.65	-351.71	84.571	234.5	-297.93	72.891	171.7	-480.72	1576.7	334.38	-594.93	1303.5	327.43
224	0.92917	-330.53	1272.4	322.76	-421.18	1524.1	489.04	-442.71	1552.8	165.69	-421.77	1840.9	323.22	-398.27	1021.2	453.67	-382.26	1028.3	203.36	-594.32	1032.8	352.97	-586.59	1029.9	261.68	-483.03	936.27	505.81	-451.09	941.83	119.24	-489.8	1102	485.77	-475.44	1102.1	150.19	-602.74	996.38	319.86	-433.25	714.66	493.21	-380.23	643.77	443.8	-447.64	628.57	467.54	-369.69	729.21	468.58	-457.8	530.56	445.53	-450.17	519.71	313.46	-551.72	295.5	428.43	-494.34	226.54	425.92	-556.16	220.9	409.22	-487.63	302.73	443.51	-515.13	123.95	407.55	-508.34	148.73	320.73	-589.15	77.274	344.86	-580.18	44.058	317.88	-582.23	50.095	383.06	-420.02	36.915	443.14	-379.58	38.64	323.53	-317.82	53.549	371.24	-350.62	725.08	111.92	-248.69	689.35	136.6	-303.15	642.63	123.86	-288.22	771.07	125.96	-273.49	562.03	132.48	-402.76	404.61	144.49	-362.33	326.22	139.49	-429.51	338.2	161.22	-339.75	392.41	127.61	-456.08	199.84	167.85	-407.15	199.2	247.6	-521.76	173.97	230.42	-514.26	146.47	261.48	-533.3	149	202.76	-376.96	80.549	122.12	-332.84	83.139	233.79	-279.12	73.011	170.68	-475.45	1576.7	334.38	-589.69	1303.5	327.56
225	0.93333	-325.38	1272.3	322.98	-415.97	1524.2	489.08	-437.55	1552.6	165.7	-416.41	1840.8	322.86	-393.38	1021	453.94	-376.93	1028.3	203.64	-589.2	1032.8	352.85	-581.35	1029.9	261.59	-478.54	936.27	505.85	-445.47	941.91	119.27	-484.69	1102	485.88	-470.05	1102.1	150.31	-597.59	996.41	319.73	-430.16	714.54	493.2	-377.52	643.25	443.72	-445	628.52	467.55	-366.4	728.7	468.82	-455.93	530.51	445.5	-448.2	519.62	313.39	-550.79	295.81	428.35	-493.68	226.63	425.86	-555.52	221.24	409.13	-486.79	302.78	443.35	-514.87	124.07	407.46	-507.96	148.87	320.58	-589.03	77.456	344.7	-580.07	44.231	317.81	-582.13	50.294	382.95	-419.99	36.874	443.1	-379.5	38.572	323.51	-317.71	53.317	371.28	-344.6	725.41	112	-242.66	689.86	136.96	-297.03	643.04	124.05	-282.33	771.52	126.28	-267.19	562.34	132.8	-392.98	401.46	144.8	-350.52	324.18	139.51	-417.92	334.37	161.52	-329.72	390.94	127.68	-440.79	195.27	167.96	-391.42	195.72	247.44	-505.33	167.36	230.72	-496.95	140.07	261.73	-516.38	142.2	203.09	-358.58	78.215	121.54	-313.92	81.871	233.02	-260.32	73.3	169.58	-470.19	1576.6	334.38	-584.44	1303.5	327.67
226	0.9375	-320.23	1272.2	323.19	-410.76	1524.2	489.11	-432.37	1552.3	165.69	-411.06	1840.7	322.49	-388.5	1020.7	454.19	-371.6	1028.2	203.92	-584.07	1032.8	352.73	-576.09	1029.8	261.49	-474.04	936.25	505.88	-439.88	941.92	119.3	-479.58	1101.9	485.98	-464.65	1101.9	150.42	-592.43	996.41	319.59	-427.05	714.41	493.2	-374.79	642.73	443.64	-442.33	628.46	467.56	-363.1	728.16	469.03	-454.04	530.44	445.47	-446.21	519.53	313.33	-549.86	296.12	428.27	-493.02	226.72	425.81	-554.87	221.58	409.04	-485.95	302.83	443.21	-514.61	124.19	407.37	-507.54	149.02	320.44	-588.9	77.631	344.56	-579.93	44.404	317.74	-582.04	50.49	382.85	-419.95	36.822	443.06	-379.43	38.514	323.5	-317.6	53.097	371.34	-338.73	725.63	112.09	-236.79	690.21	137.3	-291.08	643.32	124.26	-276.56	771.81	126.59	-261.05	562.5	133.12	-383.2	398.25	145.11	-338.75	322.13	139.51	-406.29	330.52	161.82	-319.75	389.43	127.73	-425.42	190.77	168.05	-375.61	192.33	247.26	-488.7	160.82	231.02	-479.44	133.78	261.97	-499.27	135.48	203.41	-340.17	76.036	120.91	-294.96	80.782	232.19	-241.54	73.77	168.42	-464.92	1576.5	334.37	-579.18	1303.4	327.74
227	0.94167	-315.06	1272	323.4	-405.56	1524.1	489.13	-427.19	1552.1	165.67	-405.71	1840.5	322.11	-383.6	1020.5	454.44	-366.27	1028	204.19	-578.93	1032.8	352.59	-570.82	1029.7	261.39	-469.53	936.2	505.91	-434.3	941.88	119.33	-474.47	1101.7	486.07	-459.22	1101.8	150.51	-587.27	996.39	319.45	-423.93	714.28	493.2	-372.05	642.18	443.56	-439.64	628.39	467.59	-359.79	727.6	469.21	-452.12	530.38	445.46	-444.2	519.44	313.27	-548.94	296.44	428.2	-492.36	226.82	425.78	-554.22	221.93	408.96	-485.1	302.88	443.09	-514.36	124.31	407.28	-507.09	149.18	320.32	-588.76	77.799	344.41	-579.76	44.576	317.68	-581.94	50.681	382.74	-419.92	36.76	443.01	-379.36	38.467	323.5	-317.49	52.887	371.4	-333	725.71	112.21	-231.07	690.39	137.63	-285.32	643.45	124.47	-270.92	771.96	126.89	-255.08	562.54	133.43	-373.44	394.97	145.42	-326.99	320.08	139.49	-394.65	326.64	162.12	-309.84	387.88	127.76	-409.95	186.33	168.11	-359.71	189.03	247.05	-471.87	154.37	231.31	-461.75	127.61	262.2	-481.97	128.87	203.71	-321.73	74.028	120.24	-275.97	79.885	231.3	-222.8	74.434	167.19	-459.64	1576.3	334.35	-573.91	1303.3	327.79
